<svg xmlns="http://www.w3.org/2000/svg" version="1.1" xmlns:xlink="http://www.w3.org/1999/xlink" xmlns:svgjs="http://svgjs.dev/svgjs" viewBox="0 0 14.42922617429499 1.9105165465339429"><g transform="matrix(1,0,0,1,0.3920479217996,0.4182582732669714)"><rect width="14.42922617429499" height="14.42922617429499" x="-0.3920479217996" y="-6.6776130871474955" fill="#ffffff"></rect><g><path d=" M 0.033 0.5324999999999999 Q 0.033 0.43499999999999983 0.06975 0.34124999999999983 Q 0.1065 0.24749999999999983 0.177 0.17099999999999982 Q 0.2475 0.0944999999999998 0.34875 0.04874999999999985 Q 0.45 0.0029999999999998916 0.5775 0.0029999999999998916 Q 0.7305 0.0029999999999998916 0.8445 0.06674999999999986 Q 0.9585 0.13049999999999984 1.014 0.23549999999999982 L 0.7905 0.39449999999999985 Q 0.771 0.34199999999999986 0.7342500000000001 0.3134999999999998 Q 0.6975 0.2849999999999998 0.65475 0.2737499999999998 Q 0.612 0.26249999999999984 0.5715 0.26249999999999984 Q 0.5085000000000001 0.26249999999999984 0.46275 0.2872499999999998 Q 0.417 0.31199999999999983 0.38775 0.3524999999999998 Q 0.3585 0.3929999999999998 0.34425 0.4424999999999998 Q 0.33 0.4919999999999999 0.33 0.5414999999999999 Q 0.33 0.5969999999999998 0.34650000000000003 0.6479999999999999 Q 0.363 0.6989999999999998 0.3945 0.7387499999999998 Q 0.426 0.7784999999999999 0.47175 0.8009999999999998 Q 0.5175 0.8234999999999999 0.5745 0.8234999999999999 Q 0.615 0.8234999999999999 0.657 0.8107499999999999 Q 0.6990000000000001 0.7979999999999998 0.7335 0.7694999999999999 Q 0.768 0.7409999999999999 0.786 0.6929999999999998 L 1.0245 0.8354999999999998 Q 0.993 0.9134999999999999 0.9195 0.9689999999999999 Q 0.846 1.0244999999999997 0.753 1.0537499999999997 Q 0.66 1.0829999999999997 0.5685 1.0829999999999997 Q 0.45 1.0829999999999997 0.35175 1.03575 Q 0.2535 0.9884999999999998 0.18225 0.9097499999999998 Q 0.111 0.8309999999999998 0.07200000000000001 0.7327499999999998 Q 0.033 0.6344999999999998 0.033 0.5324999999999999 M 1.595989013671875 1.0829999999999997 Q 1.474489013671875 1.0829999999999997 1.375489013671875 1.0372499999999998 Q 1.276489013671875 0.9914999999999998 1.205239013671875 0.9142499999999998 Q 1.1339890136718749 0.8369999999999999 1.095739013671875 0.7402499999999999 Q 1.0574890136718749 0.6434999999999998 1.0574890136718749 0.5399999999999998 Q 1.0574890136718749 0.4334999999999999 1.0979890136718748 0.3374999999999998 Q 1.138489013671875 0.24149999999999983 1.211239013671875 0.16574999999999984 Q 1.283989013671875 0.08999999999999986 1.383739013671875 0.046499999999999764 Q 1.483489013671875 0.0029999999999998916 1.6019890136718749 0.0029999999999998916 Q 1.723489013671875 0.0029999999999998916 1.822489013671875 0.04874999999999985 Q 1.921489013671875 0.0944999999999998 1.991989013671875 0.17249999999999988 Q 2.062489013671875 0.25049999999999983 2.100739013671875 0.34724999999999984 Q 2.1389890136718748 0.44399999999999984 2.1389890136718748 0.5459999999999998 Q 2.1389890136718748 0.6509999999999998 2.099239013671875 0.7469999999999999 Q 2.059489013671875 0.8429999999999999 1.986739013671875 0.9187499999999998 Q 1.9139890136718751 0.9944999999999998 1.814989013671875 1.0387499999999998 Q 1.715989013671875 1.0829999999999997 1.595989013671875 1.0829999999999997 M 1.354489013671875 0.5429999999999998 Q 1.354489013671875 0.5969999999999998 1.369489013671875 0.6472499999999999 Q 1.384489013671875 0.6974999999999998 1.4144890136718749 0.7372499999999998 Q 1.4444890136718749 0.7769999999999999 1.490239013671875 0.8002499999999999 Q 1.535989013671875 0.8234999999999999 1.598989013671875 0.8234999999999999 Q 1.661989013671875 0.8234999999999999 1.708489013671875 0.7994999999999999 Q 1.7549890136718749 0.7754999999999999 1.784239013671875 0.7342499999999998 Q 1.8134890136718749 0.6929999999999998 1.827739013671875 0.6427499999999998 Q 1.841989013671875 0.5924999999999998 1.841989013671875 0.5399999999999998 Q 1.841989013671875 0.4859999999999999 1.826989013671875 0.4364999999999998 Q 1.8119890136718748 0.3869999999999998 1.781989013671875 0.34724999999999984 Q 1.751989013671875 0.3074999999999998 1.705489013671875 0.2849999999999998 Q 1.658989013671875 0.26249999999999984 1.5974890136718751 0.26249999999999984 Q 1.534489013671875 0.26249999999999984 1.488739013671875 0.28649999999999987 Q 1.442989013671875 0.3104999999999998 1.412989013671875 0.35024999999999984 Q 1.382989013671875 0.3899999999999998 1.368739013671875 0.4402499999999998 Q 1.354489013671875 0.4904999999999998 1.354489013671875 0.5429999999999998 M 2.733010986328125 1.0829999999999997 Q 2.6055109863281247 1.0829999999999997 2.514010986328125 1.041 Q 2.422510986328125 0.9989999999999999 2.364760986328125 0.9254999999999999 Q 2.307010986328125 0.8519999999999999 2.280010986328125 0.7567499999999998 Q 2.2530109863281247 0.6614999999999998 2.2530109863281247 0.5564999999999999 L 2.2530109863281247 0.008999999999999897 L 2.545510986328125 0.008999999999999897 L 2.545510986328125 0.5564999999999999 Q 2.545510986328125 0.6089999999999998 2.556010986328125 0.6569999999999998 Q 2.566510986328125 0.7049999999999998 2.589010986328125 0.7424999999999998 Q 2.611510986328125 0.7799999999999998 2.646760986328125 0.8017499999999999 Q 2.682010986328125 0.8234999999999999 2.733010986328125 0.8234999999999999 Q 2.785510986328125 0.8234999999999999 2.821510986328125 0.8017499999999999 Q 2.857510986328125 0.7799999999999998 2.879260986328125 0.7417499999999999 Q 2.901010986328125 0.7034999999999998 2.9115109863281248 0.6554999999999999 Q 2.922010986328125 0.6074999999999998 2.922010986328125 0.5564999999999999 L 2.922010986328125 0.008999999999999897 L 3.2145109863281247 0.008999999999999897 L 3.2145109863281247 0.5564999999999999 Q 3.2145109863281247 0.6674999999999998 3.185260986328125 0.7634999999999998 Q 3.156010986328125 0.8594999999999998 3.0975109863281247 0.9314999999999998 Q 3.039010986328125 1.0034999999999998 2.948260986328125 1.0432499999999998 Q 2.857510986328125 1.0829999999999997 2.733010986328125 1.0829999999999997 M 3.3869824218749995 1.0739999999999998 L 3.3869824218749995 0.008999999999999897 L 3.8759824218749994 0.008999999999999897 Q 3.9539824218749997 0.008999999999999897 4.0199824218749995 0.04049999999999976 Q 4.085982421874999 0.07199999999999984 4.133982421874999 0.12524999999999986 Q 4.1819824218749995 0.17849999999999977 4.208232421875 0.24449999999999983 Q 4.234482421875 0.3104999999999998 4.234482421875 0.3779999999999998 Q 4.234482421875 0.4394999999999998 4.216482421875 0.49649999999999983 Q 4.198482421874999 0.5534999999999999 4.163982421875 0.6007499999999999 Q 4.129482421874999 0.6479999999999999 4.081482421875 0.6824999999999999 L 4.306482421875 1.0739999999999998 L 3.9854824218749996 1.0739999999999998 L 3.7979824218749996 0.7469999999999999 L 3.6794824218749995 0.7469999999999999 L 3.6794824218749995 1.0739999999999998 L 3.3869824218749995 1.0739999999999998 M 3.6794824218749995 0.4919999999999999 L 3.863982421875 0.4919999999999999 Q 3.8819824218749996 0.4919999999999999 3.8984824218749994 0.4784999999999998 Q 3.9149824218749996 0.46499999999999986 3.9262324218749995 0.4394999999999998 Q 3.9374824218749995 0.4139999999999998 3.9374824218749995 0.3779999999999998 Q 3.9374824218749995 0.3404999999999998 3.9247324218749995 0.31574999999999986 Q 3.911982421875 0.2909999999999998 3.8932324218749996 0.27749999999999986 Q 3.8744824218749994 0.2639999999999998 3.8564824218749996 0.2639999999999998 L 3.6794824218749995 0.2639999999999998 L 3.6794824218749995 0.4919999999999999 M 5.048964111328125 0.3569999999999999 Q 5.048964111328125 0.3569999999999999 5.023464111328125 0.34199999999999986 Q 4.997964111328125 0.32699999999999985 4.955964111328125 0.3082499999999998 Q 4.9139641113281245 0.28949999999999987 4.864464111328125 0.27449999999999986 Q 4.814964111328125 0.25949999999999984 4.766964111328125 0.25949999999999984 Q 4.729464111328125 0.25949999999999984 4.705464111328125 0.27149999999999985 Q 4.681464111328125 0.28349999999999986 4.681464111328125 0.31199999999999983 Q 4.681464111328125 0.33899999999999986 4.705464111328125 0.3554999999999998 Q 4.729464111328125 0.3719999999999998 4.7737141113281245 0.38549999999999984 Q 4.817964111328125 0.3989999999999998 4.879464111328125 0.41849999999999987 Q 4.978464111328125 0.4484999999999998 5.050464111328125 0.4874999999999998 Q 5.122464111328124 0.5264999999999999 5.161464111328125 0.5872499999999998 Q 5.200464111328125 0.6479999999999999 5.200464111328125 0.7484999999999998 Q 5.200464111328125 0.8444999999999998 5.165964111328125 0.9097499999999998 Q 5.131464111328125 0.9749999999999999 5.072964111328125 1.0139999999999998 Q 5.014464111328125 1.053 4.942464111328125 1.07025 Q 4.870464111328125 1.0875 4.7954641113281244 1.0875 Q 4.718964111328125 1.0875 4.635714111328125 1.0717499999999998 Q 4.552464111328125 1.0559999999999998 4.474464111328125 1.0282499999999999 Q 4.396464111328124 1.0005 4.331964111328125 0.9629999999999999 L 4.457964111328125 0.7064999999999999 Q 4.457964111328125 0.7064999999999999 4.487964111328125 0.7244999999999998 Q 4.517964111328125 0.7424999999999998 4.567464111328125 0.7649999999999999 Q 4.616964111328125 0.7874999999999999 4.677714111328124 0.8054999999999999 Q 4.738464111328125 0.8234999999999999 4.799964111328125 0.8234999999999999 Q 4.847964111328125 0.8234999999999999 4.8667141113281245 0.8107499999999999 Q 4.885464111328125 0.7979999999999998 4.885464111328125 0.7769999999999999 Q 4.885464111328125 0.7454999999999998 4.852464111328125 0.7282499999999998 Q 4.8194641113281245 0.7109999999999999 4.766214111328125 0.6952499999999998 Q 4.712964111328125 0.6794999999999998 4.648464111328125 0.6584999999999999 Q 4.555464111328125 0.6269999999999998 4.495464111328125 0.5872499999999998 Q 4.435464111328125 0.5474999999999999 4.406964111328125 0.4927499999999998 Q 4.378464111328125 0.43799999999999983 4.378464111328125 0.3599999999999999 Q 4.378464111328125 0.24149999999999983 4.433964111328125 0.1619999999999998 Q 4.489464111328124 0.0824999999999998 4.580214111328125 0.04124999999999979 Q 4.670964111328125 -2.220446049250313e-16 4.775964111328125 -2.220446049250313e-16 Q 4.853964111328125 -2.220446049250313e-16 4.926714111328125 0.018749999999999822 Q 4.999464111328125 0.03749999999999987 5.063214111328125 0.06449999999999978 Q 5.126964111328125 0.0914999999999998 5.174964111328125 0.11549999999999983 L 5.048964111328125 0.3569999999999999 M 6.092970703125 0.8189999999999998 L 6.092970703125 1.0739999999999998 L 5.333970703125 1.0739999999999998 L 5.333970703125 0.008999999999999897 L 6.079470703125 0.008999999999999897 L 6.079470703125 0.2639999999999998 L 5.626470703125 0.2639999999999998 L 5.626470703125 0.4139999999999998 L 6.013470703125 0.4139999999999998 L 6.013470703125 0.6509999999999998 L 5.626470703125 0.6509999999999998 L 5.626470703125 0.8189999999999998 L 6.092970703125 0.8189999999999998 M 7.220911376953126 0.3569999999999999 Q 7.220911376953126 0.3569999999999999 7.195411376953126 0.34199999999999986 Q 7.1699113769531255 0.32699999999999985 7.127911376953126 0.3082499999999998 Q 7.085911376953125 0.28949999999999987 7.036411376953126 0.27449999999999986 Q 6.986911376953126 0.25949999999999984 6.938911376953126 0.25949999999999984 Q 6.901411376953125 0.25949999999999984 6.877411376953125 0.27149999999999985 Q 6.853411376953125 0.28349999999999986 6.853411376953125 0.31199999999999983 Q 6.853411376953125 0.33899999999999986 6.877411376953125 0.3554999999999998 Q 6.901411376953125 0.3719999999999998 6.945661376953125 0.38549999999999984 Q 6.989911376953126 0.3989999999999998 7.0514113769531255 0.41849999999999987 Q 7.150411376953126 0.4484999999999998 7.222411376953126 0.4874999999999998 Q 7.294411376953125 0.5264999999999999 7.3334113769531255 0.5872499999999998 Q 7.372411376953125 0.6479999999999999 7.372411376953125 0.7484999999999998 Q 7.372411376953125 0.8444999999999998 7.337911376953126 0.9097499999999998 Q 7.303411376953125 0.9749999999999999 7.244911376953126 1.0139999999999998 Q 7.186411376953125 1.053 7.114411376953125 1.07025 Q 7.042411376953125 1.0875 6.967411376953125 1.0875 Q 6.890911376953126 1.0875 6.807661376953125 1.0717499999999998 Q 6.7244113769531255 1.0559999999999998 6.646411376953125 1.0282499999999999 Q 6.568411376953125 1.0005 6.503911376953125 0.9629999999999999 L 6.6299113769531255 0.7064999999999999 Q 6.6299113769531255 0.7064999999999999 6.659911376953126 0.7244999999999998 Q 6.689911376953125 0.7424999999999998 6.739411376953125 0.7649999999999999 Q 6.788911376953125 0.7874999999999999 6.849661376953125 0.8054999999999999 Q 6.9104113769531255 0.8234999999999999 6.971911376953125 0.8234999999999999 Q 7.019911376953125 0.8234999999999999 7.038661376953125 0.8107499999999999 Q 7.057411376953126 0.7979999999999998 7.057411376953126 0.7769999999999999 Q 7.057411376953126 0.7454999999999998 7.024411376953125 0.7282499999999998 Q 6.991411376953125 0.7109999999999999 6.938161376953126 0.6952499999999998 Q 6.884911376953125 0.6794999999999998 6.820411376953126 0.6584999999999999 Q 6.727411376953126 0.6269999999999998 6.667411376953125 0.5872499999999998 Q 6.6074113769531255 0.5474999999999999 6.578911376953125 0.4927499999999998 Q 6.550411376953125 0.43799999999999983 6.550411376953125 0.3599999999999999 Q 6.550411376953125 0.24149999999999983 6.6059113769531255 0.1619999999999998 Q 6.661411376953125 0.0824999999999998 6.752161376953126 0.04124999999999979 Q 6.842911376953126 -2.220446049250313e-16 6.947911376953125 -2.220446049250313e-16 Q 7.025911376953125 -2.220446049250313e-16 7.0986613769531255 0.018749999999999822 Q 7.171411376953126 0.03749999999999987 7.235161376953125 0.06449999999999978 Q 7.298911376953125 0.0914999999999998 7.346911376953125 0.11549999999999983 L 7.220911376953126 0.3569999999999999 M 8.26491796875 0.8189999999999998 L 8.26491796875 1.0739999999999998 L 7.50591796875 1.0739999999999998 L 7.50591796875 0.008999999999999897 L 8.251417968750001 0.008999999999999897 L 8.251417968750001 0.2639999999999998 L 7.798417968750001 0.2639999999999998 L 7.798417968750001 0.4139999999999998 L 8.18541796875 0.4139999999999998 L 8.18541796875 0.6509999999999998 L 7.798417968750001 0.6509999999999998 L 7.798417968750001 0.8189999999999998 L 8.26491796875 0.8189999999999998 M 8.405895263671875 1.0739999999999998 L 8.405895263671875 0.008999999999999897 L 8.698395263671875 0.008999999999999897 L 8.698395263671875 0.8189999999999998 L 9.181395263671874 0.8189999999999998 L 9.181395263671874 1.0739999999999998 L 8.405895263671875 1.0739999999999998 M 9.28792822265625 1.0739999999999998 L 9.28792822265625 0.008999999999999897 L 9.58042822265625 0.008999999999999897 L 9.58042822265625 0.8189999999999998 L 10.063428222656249 0.8189999999999998 L 10.063428222656249 1.0739999999999998 L 9.28792822265625 1.0739999999999998 M 10.928961181640625 0.8189999999999998 L 10.928961181640625 1.0739999999999998 L 10.169961181640625 1.0739999999999998 L 10.169961181640625 0.008999999999999897 L 10.915461181640625 0.008999999999999897 L 10.915461181640625 0.2639999999999998 L 10.462461181640625 0.2639999999999998 L 10.462461181640625 0.4139999999999998 L 10.849461181640626 0.4139999999999998 L 10.849461181640626 0.6509999999999998 L 10.462461181640625 0.6509999999999998 L 10.462461181640625 0.8189999999999998 L 10.928961181640625 0.8189999999999998 M 11.0699384765625 1.0739999999999998 L 11.0699384765625 0.008999999999999897 L 11.558938476562501 0.008999999999999897 Q 11.6369384765625 0.008999999999999897 11.702938476562501 0.04049999999999976 Q 11.7689384765625 0.07199999999999984 11.8169384765625 0.12524999999999986 Q 11.8649384765625 0.17849999999999977 11.891188476562501 0.24449999999999983 Q 11.9174384765625 0.3104999999999998 11.9174384765625 0.3779999999999998 Q 11.9174384765625 0.4394999999999998 11.8994384765625 0.49649999999999983 Q 11.8814384765625 0.5534999999999999 11.8469384765625 0.6007499999999999 Q 11.8124384765625 0.6479999999999999 11.7644384765625 0.6824999999999999 L 11.989438476562501 1.0739999999999998 L 11.6684384765625 1.0739999999999998 L 11.4809384765625 0.7469999999999999 L 11.3624384765625 0.7469999999999999 L 11.3624384765625 1.0739999999999998 L 11.0699384765625 1.0739999999999998 M 11.3624384765625 0.4919999999999999 L 11.5469384765625 0.4919999999999999 Q 11.5649384765625 0.4919999999999999 11.5814384765625 0.4784999999999998 Q 11.5979384765625 0.46499999999999986 11.609188476562501 0.4394999999999998 Q 11.6204384765625 0.4139999999999998 11.6204384765625 0.3779999999999998 Q 11.6204384765625 0.3404999999999998 11.607688476562501 0.31574999999999986 Q 11.5949384765625 0.2909999999999998 11.5761884765625 0.27749999999999986 Q 11.557438476562501 0.2639999999999998 11.5394384765625 0.2639999999999998 L 11.3624384765625 0.2639999999999998 L 11.3624384765625 0.4919999999999999" fill="#d542bb" fill-rule="nonzero"></path></g><g></g><g clip-path="url(#SvgjsClipPath1004)"><g clip-path="url(#SvgjsClipPath10010479d962-31bf-4e8f-8dd2-d8e14e61e110)"><path d=" M 13.630478627928364 0.5558350893576001 L 13.45948027930601 0.13123643201117602 C 13.400632967311285 -0.014928651958671787 13.239028616277178 -0.0686838904943478 13.114623994010408 0.009929696799543315 L 13.049204646319769 0.05126830300896652 C 13.101893810362785 0.05914471220178136 13.151597965826362 0.08288681825591915 13.190377993253405 0.12440101320530958 C 13.296809853779244 0.23694085347143662 13.393684670029725 0.35392058044816305 13.480764143000608 0.4741110729557184 C 13.513185349630266 0.5188736595945024 13.511805723816238 0.5746732527455108 13.483485768470098 0.6270112393085941 C 13.461537175974197 0.6676851167167128 13.440190602015326 0.7085722090233634 13.419458588646341 0.749634890069981 C 13.395553435905091 0.7969184293325798 13.372513684810823 0.8444528096522744 13.350238998940696 0.8922129469233556 L 13.350238998940696 0.9639409471999612 C 13.350238998940696 1.0258736041969674 13.308887850678417 1.0781614225486313 13.252298108197557 1.0947169323169685 C 13.240157401034109 1.0982788753277317 13.227276712752229 1.100197809414516 13.213982136726141 1.100197809414516 L 13.301801590815455 1.100197809414516 C 13.357764230653576 1.100197809414516 13.407694143068538 1.0784122636057276 13.433229762680913 1.0357191156879857 L 13.544440145344431 0.8497204718512905 L 13.618889771090528 0.7250900926331357 C 13.648965613836339 0.6747086663154015 13.653681425709745 0.613503448383974 13.630478627928364 0.5558350893576001 Z" fill="#8631e9" transform="matrix(1,0,0,1,0,0)" fill-rule="nonzero"></path></g><g clip-path="url(#SvgjsClipPath10010479d962-31bf-4e8f-8dd2-d8e14e61e110)"><path d=" M 12.897082087243891 0.2858046913937403 L 12.8971071713496 0.2858046913937403 C 12.920209632708143 0.29008153141722726 12.942634823212526 0.30056668760384075 12.96247635082882 0.31763642153922456 L 13.042005507981113 0.38668042250490253 C 13.076935125181732 0.38665533839919297 13.111864742382354 0.39994991442528177 13.13850406264595 0.42658923468887855 L 13.310267476492445 0.598327564429665 C 13.33580309610482 0.6238631840420393 13.350151204570713 0.6584792499212894 13.350176288676423 0.6945878200902607 L 13.35022645688784 0.7921399071949008 L 13.35022645688784 0.8922254889762106 C 13.372501142757967 0.8444653517051294 13.395540893852235 0.7969184293325798 13.419446046593485 0.7496474321228359 C 13.440178059962472 0.7085722090233634 13.461524633921343 0.6676976587695679 13.483473226417244 0.6270237813614492 C 13.511793181763384 0.5746857947983656 13.513172807577412 0.5188987437002119 13.480751600947752 0.47412361500857325 C 13.39367212797687 0.35393312250101777 13.29679731172639 0.2369533955242914 13.19036545120055 0.12441355525816447 C 13.151597965826362 0.08289936030877398 13.101893810362785 0.05915725425463618 13.049192104266913 0.051280845061821345 C 12.942258561626883 0.035289727671950426 12.823008723083436 0.08463016360273648 12.757714795921345 0.18347408215142108 C 12.768475877270763 0.18832785660622894 12.778986117563086 0.19459888303362938 12.7890824701112 0.20240003990931538 L 12.897082087243891 0.2858046913937403 Z" fill="#d542bb" transform="matrix(1,0,0,1,0,0)" fill-rule="nonzero"></path></g><g clip-path="url(#SvgjsClipPath10010479d962-31bf-4e8f-8dd2-d8e14e61e110)"><path d=" M 12.620454569478404 0.9988956485062909 L 12.588171325430148 0.8304182525077526 L 12.567251181268341 0.7279371386311758 C 12.564416677323155 0.7145673102879581 12.563425855147626 0.7008964726762255 12.564203462424624 0.6873385135401857 C 12.565670882608636 0.6609625763865397 12.573823216964255 0.634887648501409 12.588359456222971 0.6118980656185594 L 12.742651790442729 0.3620729148037835 C 12.778572229818877 0.30249816374348004 12.839827615961726 0.2750937782557404 12.89708208724389 0.2857921493408853 L 12.789095012164056 0.20237495580360573 C 12.778998659615942 0.19458634098077449 12.768488419323619 0.1883027725005193 12.757727337974199 0.18344899804571144 C 12.677909713606248 0.1474658484052881 12.584070074146629 0.1907986410186247 12.542129449400175 0.2912981105441429 L 12.40524548454288 0.6191975403800535 C 12.386808666846322 0.6633330243760973 12.38630698473213 0.712372451038368 12.402937746817596 0.7550279727975452 L 12.444840745405486 0.8624130293403492 L 12.509407233502 1.0276169495437841 C 12.527580668088605 1.0740852553708211 12.572242918304552 1.100197809414516 12.621771485028159 1.100197809414516 L 12.745862555973558 1.100197809414516 C 12.724252598904735 1.100197809414516 12.703620921958588 1.0951308200611765 12.685522739689112 1.085912411212898 C 12.652311383729598 1.0690433501231915 12.627540829341367 1.0381773580475269 12.620454569478404 0.9988956485062909 Z" fill="#fd5486" transform="matrix(1,0,0,1,0,0)" fill-rule="nonzero"></path></g><g clip-path="url(#SvgjsClipPath10010479d962-31bf-4e8f-8dd2-d8e14e61e110)"><path d=" M 12.766569485236834 1.0521617469806297 C 12.750891919168334 1.0337750974954916 12.740055585501786 1.0111743182511406 12.735966876271121 0.986290885387216 C 12.734762839197058 0.9790290367842865 12.73413573655432 0.9715539732828254 12.73413573655432 0.9639534892528161 L 12.73413573655432 0.7921399071949008 L 12.734185904765738 0.6945878200902607 C 12.734210988871448 0.6584792499212894 12.74855909733734 0.6238631840420393 12.774094716949714 0.598327564429665 L 12.9458330466905 0.42658923468887855 C 12.968935508049043 0.4034867733303356 12.998283911729278 0.3904054122027784 13.028460090897928 0.3873827774647715 C 13.032975229925656 0.3869061794562891 13.03747782690053 0.38668042250490275 13.042018050033967 0.38668042250490275 L 12.962488892881677 0.31763642153922467 C 12.942634823212526 0.30056668760384087 12.920222174760998 0.2900815314172275 12.897119713402455 0.28580469139374043 L 12.897094629296745 0.28580469139374043 C 12.839852700067434 0.2751063203085955 12.778597313924587 0.30251070579633516 12.742664332495584 0.3620854568566386 L 12.588359456222971 0.6119106076714141 C 12.573835759017111 0.6349127326071189 12.565670882608636 0.6609751184393947 12.564203462424624 0.6873510555930407 C 12.563413313094772 0.7009090147290802 12.564416677323155 0.7145673102879583 12.567251181268341 0.7279496806840305 L 12.588171325430148 0.8304307945606074 L 12.620454569478404 0.9989081905591456 C 12.627540829341367 1.0381899001003814 12.652311383729598 1.069055892176046 12.685510197636257 1.085912411212898 C 12.703608379905734 1.0951433621140314 12.724240056851881 1.1001978094145164 12.745850013920704 1.1001978094145164 L 12.87038005671602 1.1001978094145164 C 12.85115308968961 1.1001978094145164 12.832854234574455 1.09620943660669 12.816261098647555 1.0890228403208888 C 12.796958879304016 1.080657291066737 12.779989481791471 1.0679647335776785 12.766569485236834 1.0521617469806297 Z" fill="#fd977f" transform="matrix(1,0,0,1,0,0)" fill-rule="nonzero"></path></g><g clip-path="url(#SvgjsClipPath10010479d962-31bf-4e8f-8dd2-d8e14e61e110)"><path d=" M 13.35022645688784 0.9639409471999614 L 13.35022645688784 0.8922129469233558 L 13.35022645688784 0.7921273651420461 L 13.350176288676423 0.6945752780374059 C 13.350151204570713 0.6584667078684346 13.33580309610482 0.6238506419891847 13.310267476492445 0.5983150223768103 L 13.13850406264595 0.42658923468887855 C 13.111864742382352 0.39994991442528177 13.076935125181732 0.38665533839919297 13.042005507981113 0.38668042250490253 C 13.037465284847675 0.38668042250490253 13.032962687872802 0.38691872150914386 13.028447548845072 0.3873827774647713 C 12.998271369676424 0.3903928701499235 12.968922965996189 0.4034867733303355 12.945820504637647 0.42658923468887844 L 12.774094716949714 0.598327564429665 C 12.74855909733734 0.6238631840420393 12.734210988871448 0.6584792499212894 12.734185904765738 0.6945878200902607 L 12.73413573655432 0.7921399071949008 L 12.73413573655432 0.9639534892528161 C 12.73413573655432 0.9715539732828254 12.734762839197058 0.9790290367842865 12.735966876271121 0.986290885387216 C 12.740055585501786 1.0111743182511406 12.750891919168334 1.0337750974954916 12.766569485236834 1.0521617469806297 C 12.779989481791471 1.0679772756305335 12.796958879304016 1.0806698331195919 12.816261098647555 1.0890353823737438 C 12.832854234574455 1.0962219786595448 12.851165631742465 1.1002103514673713 12.87038005671602 1.1002103514673713 L 13.213982136726141 1.1002103514673713 C 13.227276712752229 1.1002103514673713 13.240157401034109 1.0982914173805867 13.252298108197557 1.0947294743698235 C 13.308875308625563 1.0781739646014863 13.35022645688784 1.0258861462498219 13.35022645688784 0.9639409471999614 Z" fill="#fcd977" transform="matrix(1,0,0,1,0,0)" fill-rule="nonzero"></path></g></g></g><defs><clipPath id="SvgjsClipPath1004"><path d=" M 12.390920166015624 -0.026210351467371384 h 1.2542101646801664 v 1.1264207029347426 h -1.2542101646801664 Z"></path></clipPath><clipPath id="SvgjsClipPath10010479d962-31bf-4e8f-8dd2-d8e14e61e110"><path d=" M 12.390920166015624 -0.026210351467371384 L 13.64513033069579 -0.026210351467371384 L 13.64513033069579 1.1002103514673713 L 12.390920166015624 1.1002103514673713 Z"></path></clipPath></defs></svg>